<?xml version="1.0" encoding="UTF-8" standalone="no"?>
<!DOCTYPE svg PUBLIC "-//W3C//DTD SVG 1.1//EN"
 "http://www.w3.org/Graphics/SVG/1.1/DTD/svg11.dtd">
<!-- Generated by graphviz version 2.42.3 (20191010.1750)
 -->
<!-- Title: Tree Pages: 1 -->
<svg width="720pt" height="434pt"
 viewBox="0.00 0.00 720.00 434.49" xmlns="http://www.w3.org/2000/svg" xmlns:xlink="http://www.w3.org/1999/xlink">
<g id="graph0" class="graph" transform="scale(1.28 1.28) rotate(0) translate(4 554)">
<title>Tree</title>
<polygon fill="white" stroke="transparent" points="-4,4 -4,-554 920.67,-554 920.67,4 -4,4"/>
<!-- 0 -->
<g id="node1" class="node">
<title>0</title>
<polygon fill="#fffdfc" stroke="black" points="149.17,-336.5 30.17,-336.5 30.17,-268.5 149.17,-268.5 149.17,-336.5"/>
<text text-anchor="start" x="59.67" y="-321.3" font-family="Times,serif" font-size="14.00">call ≤ 0.02</text>
<text text-anchor="start" x="38.17" y="-306.3" font-family="Times,serif" font-size="14.00">samples = 100.0%</text>
<text text-anchor="start" x="41.17" y="-291.3" font-family="Times,serif" font-size="14.00">value = [0.5, 0.5]</text>
<text text-anchor="start" x="54.67" y="-276.3" font-family="Times,serif" font-size="14.00">class = male</text>
</g>
<!-- 1 -->
<g id="node2" class="node">
<title>1</title>
<polygon fill="#e1f0fb" stroke="black" points="393.67,-372.5 267.67,-372.5 267.67,-304.5 393.67,-304.5 393.67,-372.5"/>
<text text-anchor="start" x="286.67" y="-357.3" font-family="Times,serif" font-size="14.00">anything ≤ 0.02</text>
<text text-anchor="start" x="282.17" y="-342.3" font-family="Times,serif" font-size="14.00">samples = 68.6%</text>
<text text-anchor="start" x="275.67" y="-327.3" font-family="Times,serif" font-size="14.00">value = [0.46, 0.54]</text>
<text text-anchor="start" x="290.67" y="-312.3" font-family="Times,serif" font-size="14.00">class = female</text>
</g>
<!-- 0&#45;&gt;1 -->
<g id="edge1" class="edge">
<title>0&#45;&gt;1</title>
<path fill="none" stroke="black" d="M149.44,-311.35C182.02,-316.26 222.8,-322.4 257.33,-327.6"/>
<polygon fill="black" stroke="black" points="256.95,-331.09 267.36,-329.11 257.99,-324.16 256.95,-331.09"/>
<text text-anchor="middle" x="247.25" y="-340.26" font-family="Times,serif" font-size="14.00">True</text>
</g>
<!-- 8 -->
<g id="node9" class="node">
<title>8</title>
<polygon fill="#f6d5be" stroke="black" points="387.17,-245.5 274.17,-245.5 274.17,-177.5 387.17,-177.5 387.17,-245.5"/>
<text text-anchor="start" x="297.17" y="-230.3" font-family="Times,serif" font-size="14.00">hello ≤ 0.04</text>
<text text-anchor="start" x="282.17" y="-215.3" font-family="Times,serif" font-size="14.00">samples = 31.4%</text>
<text text-anchor="start" x="282.17" y="-200.3" font-family="Times,serif" font-size="14.00">value = [0.6, 0.4]</text>
<text text-anchor="start" x="295.67" y="-185.3" font-family="Times,serif" font-size="14.00">class = male</text>
</g>
<!-- 0&#45;&gt;8 -->
<g id="edge8" class="edge">
<title>0&#45;&gt;8</title>
<path fill="none" stroke="black" d="M149.44,-280.12C184.33,-266.84 228.63,-249.97 264.57,-236.28"/>
<polygon fill="black" stroke="black" points="265.9,-239.53 274,-232.7 263.41,-232.98 265.9,-239.53"/>
<text text-anchor="middle" x="251.19" y="-218.77" font-family="Times,serif" font-size="14.00">False</text>
</g>
<!-- 2 -->
<g id="node3" class="node">
<title>2</title>
<polygon fill="#fafdfe" stroke="black" points="638.67,-486.5 512.67,-486.5 512.67,-418.5 638.67,-418.5 638.67,-486.5"/>
<text text-anchor="start" x="533.17" y="-471.3" font-family="Times,serif" font-size="14.00">possible ≤ 0.01</text>
<text text-anchor="start" x="527.17" y="-456.3" font-family="Times,serif" font-size="14.00">samples = 45.5%</text>
<text text-anchor="start" x="520.67" y="-441.3" font-family="Times,serif" font-size="14.00">value = [0.49, 0.51]</text>
<text text-anchor="start" x="535.67" y="-426.3" font-family="Times,serif" font-size="14.00">class = female</text>
</g>
<!-- 1&#45;&gt;2 -->
<g id="edge2" class="edge">
<title>1&#45;&gt;2</title>
<path fill="none" stroke="black" d="M393.93,-367.71C427.36,-383.39 468.72,-402.8 503.43,-419.08"/>
<polygon fill="black" stroke="black" points="502.03,-422.29 512.57,-423.37 505,-415.95 502.03,-422.29"/>
</g>
<!-- 5 -->
<g id="node6" class="node">
<title>5</title>
<polygon fill="#b6dbf5" stroke="black" points="638.67,-372.5 512.67,-372.5 512.67,-304.5 638.67,-304.5 638.67,-372.5"/>
<text text-anchor="start" x="541.67" y="-357.3" font-family="Times,serif" font-size="14.00">cross ≤ 0.05</text>
<text text-anchor="start" x="527.17" y="-342.3" font-family="Times,serif" font-size="14.00">samples = 23.1%</text>
<text text-anchor="start" x="520.67" y="-327.3" font-family="Times,serif" font-size="14.00">value = [0.39, 0.61]</text>
<text text-anchor="start" x="535.67" y="-312.3" font-family="Times,serif" font-size="14.00">class = female</text>
</g>
<!-- 1&#45;&gt;5 -->
<g id="edge5" class="edge">
<title>1&#45;&gt;5</title>
<path fill="none" stroke="black" d="M393.93,-338.5C427.08,-338.5 468.02,-338.5 502.54,-338.5"/>
<polygon fill="black" stroke="black" points="502.57,-342 512.57,-338.5 502.57,-335 502.57,-342"/>
</g>
<!-- 3 -->
<g id="node4" class="node">
<title>3</title>
<polygon fill="#ecf6fd" stroke="black" points="884.67,-550 758.67,-550 758.67,-497 884.67,-497 884.67,-550"/>
<text text-anchor="start" x="773.17" y="-534.8" font-family="Times,serif" font-size="14.00">samples = 42.0%</text>
<text text-anchor="start" x="766.67" y="-519.8" font-family="Times,serif" font-size="14.00">value = [0.47, 0.53]</text>
<text text-anchor="start" x="781.67" y="-504.8" font-family="Times,serif" font-size="14.00">class = female</text>
</g>
<!-- 2&#45;&gt;3 -->
<g id="edge3" class="edge">
<title>2&#45;&gt;3</title>
<path fill="none" stroke="black" d="M638.87,-470.6C672.43,-480.36 714,-492.46 748.92,-502.62"/>
<polygon fill="black" stroke="black" points="748,-506 758.58,-505.43 749.95,-499.28 748,-506"/>
</g>
<!-- 4 -->
<g id="node5" class="node">
<title>4</title>
<polygon fill="#efb185" stroke="black" points="884.67,-479 758.67,-479 758.67,-426 884.67,-426 884.67,-479"/>
<text text-anchor="start" x="776.67" y="-463.8" font-family="Times,serif" font-size="14.00">samples = 3.5%</text>
<text text-anchor="start" x="766.67" y="-448.8" font-family="Times,serif" font-size="14.00">value = [0.72, 0.28]</text>
<text text-anchor="start" x="786.67" y="-433.8" font-family="Times,serif" font-size="14.00">class = male</text>
</g>
<!-- 2&#45;&gt;4 -->
<g id="edge4" class="edge">
<title>2&#45;&gt;4</title>
<path fill="none" stroke="black" d="M638.87,-452.5C672.28,-452.5 713.64,-452.5 748.47,-452.5"/>
<polygon fill="black" stroke="black" points="748.58,-456 758.58,-452.5 748.58,-449 748.58,-456"/>
</g>
<!-- 6 -->
<g id="node7" class="node">
<title>6</title>
<polygon fill="#acd6f4" stroke="black" points="884.67,-408 758.67,-408 758.67,-355 884.67,-355 884.67,-408"/>
<text text-anchor="start" x="773.17" y="-392.8" font-family="Times,serif" font-size="14.00">samples = 22.5%</text>
<text text-anchor="start" x="766.67" y="-377.8" font-family="Times,serif" font-size="14.00">value = [0.37, 0.63]</text>
<text text-anchor="start" x="781.67" y="-362.8" font-family="Times,serif" font-size="14.00">class = female</text>
</g>
<!-- 5&#45;&gt;6 -->
<g id="edge6" class="edge">
<title>5&#45;&gt;6</title>
<path fill="none" stroke="black" d="M638.87,-349.46C672.28,-355.35 713.64,-362.64 748.47,-368.78"/>
<polygon fill="black" stroke="black" points="748.12,-372.27 758.58,-370.56 749.34,-365.38 748.12,-372.27"/>
</g>
<!-- 7 -->
<g id="node8" class="node">
<title>7</title>
<polygon fill="#e78c4b" stroke="black" points="884.67,-337 758.67,-337 758.67,-284 884.67,-284 884.67,-337"/>
<text text-anchor="start" x="776.67" y="-321.8" font-family="Times,serif" font-size="14.00">samples = 0.6%</text>
<text text-anchor="start" x="766.67" y="-306.8" font-family="Times,serif" font-size="14.00">value = [0.92, 0.08]</text>
<text text-anchor="start" x="786.67" y="-291.8" font-family="Times,serif" font-size="14.00">class = male</text>
</g>
<!-- 5&#45;&gt;7 -->
<g id="edge7" class="edge">
<title>5&#45;&gt;7</title>
<path fill="none" stroke="black" d="M638.87,-331.36C672.28,-327.53 713.64,-322.78 748.47,-318.78"/>
<polygon fill="black" stroke="black" points="749.04,-322.24 758.58,-317.62 748.24,-315.29 749.04,-322.24"/>
</g>
<!-- 9 -->
<g id="node10" class="node">
<title>9</title>
<polygon fill="#f5d0b5" stroke="black" points="638.67,-245.5 512.67,-245.5 512.67,-177.5 638.67,-177.5 638.67,-245.5"/>
<text text-anchor="start" x="544.67" y="-230.3" font-family="Times,serif" font-size="14.00">best ≤ 0.02</text>
<text text-anchor="start" x="527.17" y="-215.3" font-family="Times,serif" font-size="14.00">samples = 29.9%</text>
<text text-anchor="start" x="520.67" y="-200.3" font-family="Times,serif" font-size="14.00">value = [0.62, 0.38]</text>
<text text-anchor="start" x="540.67" y="-185.3" font-family="Times,serif" font-size="14.00">class = male</text>
</g>
<!-- 8&#45;&gt;9 -->
<g id="edge9" class="edge">
<title>8&#45;&gt;9</title>
<path fill="none" stroke="black" d="M387.42,-211.5C421.48,-211.5 465.42,-211.5 502.18,-211.5"/>
<polygon fill="black" stroke="black" points="502.34,-215 512.34,-211.5 502.34,-208 502.34,-215"/>
</g>
<!-- 12 -->
<g id="node13" class="node">
<title>12</title>
<polygon fill="#77bced" stroke="black" points="638.67,-131.5 512.67,-131.5 512.67,-63.5 638.67,-63.5 638.67,-131.5"/>
<text text-anchor="start" x="540.67" y="-116.3" font-family="Times,serif" font-size="14.00">heard ≤ 0.01</text>
<text text-anchor="start" x="530.67" y="-101.3" font-family="Times,serif" font-size="14.00">samples = 1.5%</text>
<text text-anchor="start" x="520.67" y="-86.3" font-family="Times,serif" font-size="14.00">value = [0.24, 0.76]</text>
<text text-anchor="start" x="535.67" y="-71.3" font-family="Times,serif" font-size="14.00">class = female</text>
</g>
<!-- 8&#45;&gt;12 -->
<g id="edge12" class="edge">
<title>8&#45;&gt;12</title>
<path fill="none" stroke="black" d="M387.42,-185.35C421.78,-169.23 466.18,-148.4 503.12,-131.07"/>
<polygon fill="black" stroke="black" points="504.77,-134.16 512.34,-126.74 501.8,-127.82 504.77,-134.16"/>
</g>
<!-- 10 -->
<g id="node11" class="node">
<title>10</title>
<polygon fill="#fae6d8" stroke="black" points="884.67,-266 758.67,-266 758.67,-213 884.67,-213 884.67,-266"/>
<text text-anchor="start" x="773.17" y="-250.8" font-family="Times,serif" font-size="14.00">samples = 23.9%</text>
<text text-anchor="start" x="766.67" y="-235.8" font-family="Times,serif" font-size="14.00">value = [0.55, 0.45]</text>
<text text-anchor="start" x="786.67" y="-220.8" font-family="Times,serif" font-size="14.00">class = male</text>
</g>
<!-- 9&#45;&gt;10 -->
<g id="edge10" class="edge">
<title>9&#45;&gt;10</title>
<path fill="none" stroke="black" d="M638.87,-218.64C672.28,-222.47 713.64,-227.22 748.47,-231.22"/>
<polygon fill="black" stroke="black" points="748.24,-234.71 758.58,-232.38 749.04,-227.76 748.24,-234.71"/>
</g>
<!-- 11 -->
<g id="node12" class="node">
<title>11</title>
<polygon fill="#ea995f" stroke="black" points="884.67,-195 758.67,-195 758.67,-142 884.67,-142 884.67,-195"/>
<text text-anchor="start" x="776.67" y="-179.8" font-family="Times,serif" font-size="14.00">samples = 6.0%</text>
<text text-anchor="start" x="766.67" y="-164.8" font-family="Times,serif" font-size="14.00">value = [0.84, 0.16]</text>
<text text-anchor="start" x="786.67" y="-149.8" font-family="Times,serif" font-size="14.00">class = male</text>
</g>
<!-- 9&#45;&gt;11 -->
<g id="edge11" class="edge">
<title>9&#45;&gt;11</title>
<path fill="none" stroke="black" d="M638.87,-200.54C672.28,-194.65 713.64,-187.36 748.47,-181.22"/>
<polygon fill="black" stroke="black" points="749.34,-184.62 758.58,-179.44 748.12,-177.73 749.34,-184.62"/>
</g>
<!-- 13 -->
<g id="node14" class="node">
<title>13</title>
<polygon fill="#57ace9" stroke="black" points="884.67,-124 758.67,-124 758.67,-71 884.67,-71 884.67,-124"/>
<text text-anchor="start" x="776.67" y="-108.8" font-family="Times,serif" font-size="14.00">samples = 1.0%</text>
<text text-anchor="start" x="766.67" y="-93.8" font-family="Times,serif" font-size="14.00">value = [0.13, 0.87]</text>
<text text-anchor="start" x="781.67" y="-78.8" font-family="Times,serif" font-size="14.00">class = female</text>
</g>
<!-- 12&#45;&gt;13 -->
<g id="edge13" class="edge">
<title>12&#45;&gt;13</title>
<path fill="none" stroke="black" d="M638.87,-97.5C672.28,-97.5 713.64,-97.5 748.47,-97.5"/>
<polygon fill="black" stroke="black" points="748.58,-101 758.58,-97.5 748.58,-94 748.58,-101"/>
</g>
<!-- 14 -->
<g id="node15" class="node">
<title>14</title>
<polygon fill="#ffffff" stroke="black" points="878.17,-53 765.17,-53 765.17,0 878.17,0 878.17,-53"/>
<text text-anchor="start" x="776.67" y="-37.8" font-family="Times,serif" font-size="14.00">samples = 0.5%</text>
<text text-anchor="start" x="773.17" y="-22.8" font-family="Times,serif" font-size="14.00">value = [0.5, 0.5]</text>
<text text-anchor="start" x="786.67" y="-7.8" font-family="Times,serif" font-size="14.00">class = male</text>
</g>
<!-- 12&#45;&gt;14 -->
<g id="edge14" class="edge">
<title>12&#45;&gt;14</title>
<path fill="none" stroke="black" d="M638.87,-79.4C674.36,-69.07 718.82,-56.14 754.89,-45.64"/>
<polygon fill="black" stroke="black" points="756.2,-48.9 764.83,-42.75 754.25,-42.18 756.2,-48.9"/>
</g>
</g>
</svg>
