<?xml version="1.0" encoding="UTF-8" standalone="no"?>
<!DOCTYPE svg PUBLIC "-//W3C//DTD SVG 1.1//EN"
 "http://www.w3.org/Graphics/SVG/1.1/DTD/svg11.dtd">
<!-- Generated by graphviz version 2.42.3 (20191010.1750)
 -->
<!-- Title: Tree Pages: 1 -->
<svg width="613pt" height="371pt"
 viewBox="0.00 0.00 613.00 371.00" xmlns="http://www.w3.org/2000/svg" xmlns:xlink="http://www.w3.org/1999/xlink">
<g id="graph0" class="graph" transform="scale(1 1) rotate(0) translate(4 367)">
<title>Tree</title>
<polygon fill="white" stroke="transparent" points="-4,4 -4,-367 609,-367 609,4 -4,4"/>
<!-- 0 -->
<g id="node1" class="node">
<title>0</title>
<polygon fill="#fffdfc" stroke="black" points="118.5,-174.04 -0.5,-174.04 -0.5,-106.04 118.5,-106.04 118.5,-174.04"/>
<text text-anchor="start" x="28.5" y="-158.84" font-family="Times,serif" font-size="14.00">think ≤ 0.1</text>
<text text-anchor="start" x="7.5" y="-143.84" font-family="Times,serif" font-size="14.00">samples = 100.0%</text>
<text text-anchor="start" x="10.5" y="-128.84" font-family="Times,serif" font-size="14.00">value = [0.5, 0.5]</text>
<text text-anchor="start" x="24" y="-113.84" font-family="Times,serif" font-size="14.00">class = male</text>
</g>
<!-- 1 -->
<g id="node2" class="node">
<title>1</title>
<polygon fill="#fdf6f1" stroke="black" points="281,-217.04 155,-217.04 155,-149.04 281,-149.04 281,-217.04"/>
<text text-anchor="start" x="185.5" y="-201.84" font-family="Times,serif" font-size="14.00">poor ≤ 0.02</text>
<text text-anchor="start" x="169.5" y="-186.84" font-family="Times,serif" font-size="14.00">samples = 96.3%</text>
<text text-anchor="start" x="163" y="-171.84" font-family="Times,serif" font-size="14.00">value = [0.52, 0.48]</text>
<text text-anchor="start" x="183" y="-156.84" font-family="Times,serif" font-size="14.00">class = male</text>
</g>
<!-- 0&#45;&gt;1 -->
<g id="edge1" class="edge">
<title>0&#45;&gt;1</title>
<path fill="none" stroke="black" d="M118.91,-156.17C127.44,-158.51 136.31,-160.94 145.06,-163.34"/>
<polygon fill="black" stroke="black" points="144.31,-166.76 154.88,-166.03 146.16,-160.01 144.31,-166.76"/>
<text text-anchor="middle" x="133.16" y="-174.71" font-family="Times,serif" font-size="14.00">True</text>
</g>
<!-- 8 -->
<g id="node9" class="node">
<title>8</title>
<polygon fill="#5dafea" stroke="black" points="281,-131.04 155,-131.04 155,-63.04 281,-63.04 281,-131.04"/>
<text text-anchor="start" x="189" y="-115.84" font-family="Times,serif" font-size="14.00">kid ≤ 0.03</text>
<text text-anchor="start" x="173" y="-100.84" font-family="Times,serif" font-size="14.00">samples = 3.7%</text>
<text text-anchor="start" x="163" y="-85.84" font-family="Times,serif" font-size="14.00">value = [0.16, 0.84]</text>
<text text-anchor="start" x="178" y="-70.84" font-family="Times,serif" font-size="14.00">class = female</text>
</g>
<!-- 0&#45;&gt;8 -->
<g id="edge8" class="edge">
<title>0&#45;&gt;8</title>
<path fill="none" stroke="black" d="M118.91,-123.91C127.44,-121.57 136.31,-119.14 145.06,-116.74"/>
<polygon fill="black" stroke="black" points="146.16,-120.07 154.88,-114.06 144.31,-113.32 146.16,-120.07"/>
<text text-anchor="middle" x="133.16" y="-97.98" font-family="Times,serif" font-size="14.00">False</text>
</g>
<!-- 2 -->
<g id="node3" class="node">
<title>2</title>
<polygon fill="#fceee5" stroke="black" points="443,-302.04 317,-302.04 317,-234.04 443,-234.04 443,-302.04"/>
<text text-anchor="start" x="336" y="-286.84" font-family="Times,serif" font-size="14.00">anymore ≤ 0.02</text>
<text text-anchor="start" x="331.5" y="-271.84" font-family="Times,serif" font-size="14.00">samples = 88.7%</text>
<text text-anchor="start" x="325" y="-256.84" font-family="Times,serif" font-size="14.00">value = [0.54, 0.46]</text>
<text text-anchor="start" x="345" y="-241.84" font-family="Times,serif" font-size="14.00">class = male</text>
</g>
<!-- 1&#45;&gt;2 -->
<g id="edge2" class="edge">
<title>1&#45;&gt;2</title>
<path fill="none" stroke="black" d="M281.32,-216.15C290.07,-220.8 299.12,-225.6 308.02,-230.33"/>
<polygon fill="black" stroke="black" points="306.38,-233.42 316.85,-235.02 309.66,-227.24 306.38,-233.42"/>
</g>
<!-- 5 -->
<g id="node6" class="node">
<title>5</title>
<polygon fill="#92c9f1" stroke="black" points="443,-215.04 317,-215.04 317,-147.04 443,-147.04 443,-215.04"/>
<text text-anchor="start" x="340.5" y="-199.84" font-family="Times,serif" font-size="14.00">serious ≤ 0.02</text>
<text text-anchor="start" x="335" y="-184.84" font-family="Times,serif" font-size="14.00">samples = 7.6%</text>
<text text-anchor="start" x="325" y="-169.84" font-family="Times,serif" font-size="14.00">value = [0.31, 0.69]</text>
<text text-anchor="start" x="340" y="-154.84" font-family="Times,serif" font-size="14.00">class = female</text>
</g>
<!-- 1&#45;&gt;5 -->
<g id="edge5" class="edge">
<title>1&#45;&gt;5</title>
<path fill="none" stroke="black" d="M281.32,-182.26C289.62,-182.16 298.18,-182.05 306.63,-181.95"/>
<polygon fill="black" stroke="black" points="306.9,-185.44 316.85,-181.82 306.81,-178.44 306.9,-185.44"/>
</g>
<!-- 3 -->
<g id="node4" class="node">
<title>3</title>
<polygon fill="#fae5d6" stroke="black" points="605,-362.54 479,-362.54 479,-309.54 605,-309.54 605,-362.54"/>
<text text-anchor="start" x="493.5" y="-347.34" font-family="Times,serif" font-size="14.00">samples = 80.1%</text>
<text text-anchor="start" x="487" y="-332.34" font-family="Times,serif" font-size="14.00">value = [0.56, 0.44]</text>
<text text-anchor="start" x="507" y="-317.34" font-family="Times,serif" font-size="14.00">class = male</text>
</g>
<!-- 2&#45;&gt;3 -->
<g id="edge3" class="edge">
<title>2&#45;&gt;3</title>
<path fill="none" stroke="black" d="M443.32,-294.53C451.89,-298.17 460.74,-301.93 469.46,-305.64"/>
<polygon fill="black" stroke="black" points="468.28,-308.94 478.85,-309.63 471.02,-302.49 468.28,-308.94"/>
</g>
<!-- 4 -->
<g id="node5" class="node">
<title>4</title>
<polygon fill="#9ecff2" stroke="black" points="605,-290.54 479,-290.54 479,-237.54 605,-237.54 605,-290.54"/>
<text text-anchor="start" x="497" y="-275.34" font-family="Times,serif" font-size="14.00">samples = 8.6%</text>
<text text-anchor="start" x="487" y="-260.34" font-family="Times,serif" font-size="14.00">value = [0.34, 0.66]</text>
<text text-anchor="start" x="502" y="-245.34" font-family="Times,serif" font-size="14.00">class = female</text>
</g>
<!-- 2&#45;&gt;4 -->
<g id="edge4" class="edge">
<title>2&#45;&gt;4</title>
<path fill="none" stroke="black" d="M443.32,-266.48C451.62,-266.28 460.18,-266.06 468.63,-265.85"/>
<polygon fill="black" stroke="black" points="468.94,-269.34 478.85,-265.59 468.77,-262.35 468.94,-269.34"/>
</g>
<!-- 6 -->
<g id="node7" class="node">
<title>6</title>
<polygon fill="#84c2ef" stroke="black" points="605,-212.54 479,-212.54 479,-159.54 605,-159.54 605,-212.54"/>
<text text-anchor="start" x="497" y="-197.34" font-family="Times,serif" font-size="14.00">samples = 7.1%</text>
<text text-anchor="start" x="487" y="-182.34" font-family="Times,serif" font-size="14.00">value = [0.28, 0.72]</text>
<text text-anchor="start" x="502" y="-167.34" font-family="Times,serif" font-size="14.00">class = female</text>
</g>
<!-- 5&#45;&gt;6 -->
<g id="edge6" class="edge">
<title>5&#45;&gt;6</title>
<path fill="none" stroke="black" d="M443.32,-182.99C451.62,-183.25 460.18,-183.51 468.63,-183.78"/>
<polygon fill="black" stroke="black" points="468.75,-187.28 478.85,-184.1 468.97,-180.29 468.75,-187.28"/>
</g>
<!-- 7 -->
<g id="node8" class="node">
<title>7</title>
<polygon fill="#e9965a" stroke="black" points="605,-140.54 479,-140.54 479,-87.54 605,-87.54 605,-140.54"/>
<text text-anchor="start" x="497" y="-125.34" font-family="Times,serif" font-size="14.00">samples = 0.5%</text>
<text text-anchor="start" x="487" y="-110.34" font-family="Times,serif" font-size="14.00">value = [0.86, 0.14]</text>
<text text-anchor="start" x="507" y="-95.34" font-family="Times,serif" font-size="14.00">class = male</text>
</g>
<!-- 5&#45;&gt;7 -->
<g id="edge7" class="edge">
<title>5&#45;&gt;7</title>
<path fill="none" stroke="black" d="M443.32,-154.94C451.89,-151.36 460.74,-147.65 469.46,-144"/>
<polygon fill="black" stroke="black" points="470.98,-147.16 478.85,-140.06 468.28,-140.7 470.98,-147.16"/>
</g>
<!-- 9 -->
<g id="node10" class="node">
<title>9</title>
<polygon fill="#50a8e8" stroke="black" points="436.5,-125.54 323.5,-125.54 323.5,-72.54 436.5,-72.54 436.5,-125.54"/>
<text text-anchor="start" x="335" y="-110.34" font-family="Times,serif" font-size="14.00">samples = 3.2%</text>
<text text-anchor="start" x="331.5" y="-95.34" font-family="Times,serif" font-size="14.00">value = [0.1, 0.9]</text>
<text text-anchor="start" x="340" y="-80.34" font-family="Times,serif" font-size="14.00">class = female</text>
</g>
<!-- 8&#45;&gt;9 -->
<g id="edge9" class="edge">
<title>8&#45;&gt;9</title>
<path fill="none" stroke="black" d="M281.32,-97.82C291.82,-97.95 302.76,-98.09 313.35,-98.22"/>
<polygon fill="black" stroke="black" points="313.32,-101.72 323.37,-98.34 313.41,-94.72 313.32,-101.72"/>
</g>
<!-- 10 -->
<g id="node11" class="node">
<title>10</title>
<polygon fill="#bddef6" stroke="black" points="436.5,-53.54 323.5,-53.54 323.5,-0.54 436.5,-0.54 436.5,-53.54"/>
<text text-anchor="start" x="335" y="-38.34" font-family="Times,serif" font-size="14.00">samples = 0.5%</text>
<text text-anchor="start" x="331.5" y="-23.34" font-family="Times,serif" font-size="14.00">value = [0.4, 0.6]</text>
<text text-anchor="start" x="340" y="-8.34" font-family="Times,serif" font-size="14.00">class = female</text>
</g>
<!-- 8&#45;&gt;10 -->
<g id="edge10" class="edge">
<title>8&#45;&gt;10</title>
<path fill="none" stroke="black" d="M281.32,-69.78C292.04,-65.08 303.21,-60.2 314,-55.48"/>
<polygon fill="black" stroke="black" points="315.61,-58.6 323.37,-51.38 312.8,-52.18 315.61,-58.6"/>
</g>
</g>
</svg>
