<?xml version="1.0" encoding="UTF-8" standalone="no"?>
<!DOCTYPE svg PUBLIC "-//W3C//DTD SVG 1.1//EN"
 "http://www.w3.org/Graphics/SVG/1.1/DTD/svg11.dtd">
<!-- Generated by graphviz version 2.42.3 (20191010.1750)
 -->
<!-- Title: Tree Pages: 1 -->
<svg width="701pt" height="424pt"
 viewBox="0.00 0.00 701.33 424.00" xmlns="http://www.w3.org/2000/svg" xmlns:xlink="http://www.w3.org/1999/xlink">
<g id="graph0" class="graph" transform="scale(1 1) rotate(0) translate(4 420)">
<title>Tree</title>
<polygon fill="white" stroke="transparent" points="-4,4 -4,-420 697.33,-420 697.33,4 -4,4"/>
<!-- 0 -->
<g id="node1" class="node">
<title>0</title>
<polygon fill="#f8fbfe" stroke="black" points="134.33,-202.5 8.33,-202.5 8.33,-134.5 134.33,-134.5 134.33,-202.5"/>
<text text-anchor="start" x="37.83" y="-187.3" font-family="Times,serif" font-size="14.00">level ≤ 0.01</text>
<text text-anchor="start" x="19.83" y="-172.3" font-family="Times,serif" font-size="14.00">samples = 100.0%</text>
<text text-anchor="start" x="16.33" y="-157.3" font-family="Times,serif" font-size="14.00">value = [0.49, 0.51]</text>
<text text-anchor="start" x="31.33" y="-142.3" font-family="Times,serif" font-size="14.00">class = female</text>
</g>
<!-- 1 -->
<g id="node2" class="node">
<title>1</title>
<polygon fill="#eef6fd" stroke="black" points="318.33,-246.5 192.33,-246.5 192.33,-178.5 318.33,-178.5 318.33,-246.5"/>
<text text-anchor="start" x="223.33" y="-231.3" font-family="Times,serif" font-size="14.00">land ≤ 0.03</text>
<text text-anchor="start" x="206.83" y="-216.3" font-family="Times,serif" font-size="14.00">samples = 96.0%</text>
<text text-anchor="start" x="200.33" y="-201.3" font-family="Times,serif" font-size="14.00">value = [0.48, 0.52]</text>
<text text-anchor="start" x="215.33" y="-186.3" font-family="Times,serif" font-size="14.00">class = female</text>
</g>
<!-- 0&#45;&gt;1 -->
<g id="edge1" class="edge">
<title>0&#45;&gt;1</title>
<path fill="none" stroke="black" d="M134.46,-183.52C149.89,-187.25 166.57,-191.28 182.43,-195.12"/>
<polygon fill="black" stroke="black" points="181.64,-198.53 192.18,-197.47 183.28,-191.72 181.64,-198.53"/>
<text text-anchor="middle" x="170.84" y="-206.8" font-family="Times,serif" font-size="14.00">True</text>
</g>
<!-- 8 -->
<g id="node9" class="node">
<title>8</title>
<polygon fill="#eca36e" stroke="black" points="318.33,-139.5 192.33,-139.5 192.33,-71.5 318.33,-71.5 318.33,-139.5"/>
<text text-anchor="start" x="221.83" y="-124.3" font-family="Times,serif" font-size="14.00">gotta ≤ 0.03</text>
<text text-anchor="start" x="210.33" y="-109.3" font-family="Times,serif" font-size="14.00">samples = 4.0%</text>
<text text-anchor="start" x="200.33" y="-94.3" font-family="Times,serif" font-size="14.00">value = [0.79, 0.21]</text>
<text text-anchor="start" x="220.33" y="-79.3" font-family="Times,serif" font-size="14.00">class = male</text>
</g>
<!-- 0&#45;&gt;8 -->
<g id="edge8" class="edge">
<title>0&#45;&gt;8</title>
<path fill="none" stroke="black" d="M134.46,-147C149.89,-141.65 166.57,-135.88 182.43,-130.39"/>
<polygon fill="black" stroke="black" points="183.87,-133.59 192.18,-127.01 181.58,-126.98 183.87,-133.59"/>
<text text-anchor="middle" x="169.69" y="-112.39" font-family="Times,serif" font-size="14.00">False</text>
</g>
<!-- 2 -->
<g id="node3" class="node">
<title>2</title>
<polygon fill="#e7f3fc" stroke="black" points="501.33,-352.5 375.33,-352.5 375.33,-284.5 501.33,-284.5 501.33,-352.5"/>
<text text-anchor="start" x="406.33" y="-337.3" font-family="Times,serif" font-size="14.00">twin ≤ 0.05</text>
<text text-anchor="start" x="389.83" y="-322.3" font-family="Times,serif" font-size="14.00">samples = 92.8%</text>
<text text-anchor="start" x="383.33" y="-307.3" font-family="Times,serif" font-size="14.00">value = [0.47, 0.53]</text>
<text text-anchor="start" x="398.33" y="-292.3" font-family="Times,serif" font-size="14.00">class = female</text>
</g>
<!-- 1&#45;&gt;2 -->
<g id="edge2" class="edge">
<title>1&#45;&gt;2</title>
<path fill="none" stroke="black" d="M314.6,-246.62C332.36,-257.02 352.03,-268.54 370.32,-279.26"/>
<polygon fill="black" stroke="black" points="368.78,-282.41 379.18,-284.44 372.32,-276.37 368.78,-282.41"/>
</g>
<!-- 5 -->
<g id="node6" class="node">
<title>5</title>
<polygon fill="#edaa79" stroke="black" points="501.33,-246.5 375.33,-246.5 375.33,-178.5 501.33,-178.5 501.33,-246.5"/>
<text text-anchor="start" x="408.33" y="-231.3" font-family="Times,serif" font-size="14.00">bad ≤ 0.02</text>
<text text-anchor="start" x="393.33" y="-216.3" font-family="Times,serif" font-size="14.00">samples = 3.2%</text>
<text text-anchor="start" x="383.33" y="-201.3" font-family="Times,serif" font-size="14.00">value = [0.76, 0.24]</text>
<text text-anchor="start" x="403.33" y="-186.3" font-family="Times,serif" font-size="14.00">class = male</text>
</g>
<!-- 1&#45;&gt;5 -->
<g id="edge5" class="edge">
<title>1&#45;&gt;5</title>
<path fill="none" stroke="black" d="M318.37,-212.5C333.4,-212.5 349.59,-212.5 365.04,-212.5"/>
<polygon fill="black" stroke="black" points="365.07,-216 375.07,-212.5 365.07,-209 365.07,-216"/>
</g>
<!-- 3 -->
<g id="node4" class="node">
<title>3</title>
<polygon fill="#e9f4fc" stroke="black" points="685.33,-416 559.33,-416 559.33,-363 685.33,-363 685.33,-416"/>
<text text-anchor="start" x="573.83" y="-400.8" font-family="Times,serif" font-size="14.00">samples = 92.3%</text>
<text text-anchor="start" x="567.33" y="-385.8" font-family="Times,serif" font-size="14.00">value = [0.47, 0.53]</text>
<text text-anchor="start" x="582.33" y="-370.8" font-family="Times,serif" font-size="14.00">class = female</text>
</g>
<!-- 2&#45;&gt;3 -->
<g id="edge3" class="edge">
<title>2&#45;&gt;3</title>
<path fill="none" stroke="black" d="M501.46,-342.74C516.89,-348.76 533.57,-355.26 549.43,-361.45"/>
<polygon fill="black" stroke="black" points="548.59,-364.88 559.18,-365.25 551.14,-358.36 548.59,-364.88"/>
</g>
<!-- 4 -->
<g id="node5" class="node">
<title>4</title>
<polygon fill="#399de5" stroke="black" points="678.83,-345 565.83,-345 565.83,-292 678.83,-292 678.83,-345"/>
<text text-anchor="start" x="577.33" y="-329.8" font-family="Times,serif" font-size="14.00">samples = 0.5%</text>
<text text-anchor="start" x="573.83" y="-314.8" font-family="Times,serif" font-size="14.00">value = [0.0, 1.0]</text>
<text text-anchor="start" x="582.33" y="-299.8" font-family="Times,serif" font-size="14.00">class = female</text>
</g>
<!-- 2&#45;&gt;4 -->
<g id="edge4" class="edge">
<title>2&#45;&gt;4</title>
<path fill="none" stroke="black" d="M501.46,-318.5C518.85,-318.5 537.8,-318.5 555.41,-318.5"/>
<polygon fill="black" stroke="black" points="555.59,-322 565.59,-318.5 555.59,-315 555.59,-322"/>
</g>
<!-- 6 -->
<g id="node7" class="node">
<title>6</title>
<polygon fill="#e78c4b" stroke="black" points="685.33,-274 559.33,-274 559.33,-221 685.33,-221 685.33,-274"/>
<text text-anchor="start" x="577.33" y="-258.8" font-family="Times,serif" font-size="14.00">samples = 2.4%</text>
<text text-anchor="start" x="567.33" y="-243.8" font-family="Times,serif" font-size="14.00">value = [0.92, 0.08]</text>
<text text-anchor="start" x="587.33" y="-228.8" font-family="Times,serif" font-size="14.00">class = male</text>
</g>
<!-- 5&#45;&gt;6 -->
<g id="edge6" class="edge">
<title>5&#45;&gt;6</title>
<path fill="none" stroke="black" d="M501.46,-224.45C516.75,-227.39 533.25,-230.56 548.98,-233.59"/>
<polygon fill="black" stroke="black" points="548.7,-237.1 559.18,-235.55 550.02,-230.22 548.7,-237.1"/>
</g>
<!-- 7 -->
<g id="node8" class="node">
<title>7</title>
<polygon fill="#91c9f1" stroke="black" points="685.33,-203 559.33,-203 559.33,-150 685.33,-150 685.33,-203"/>
<text text-anchor="start" x="577.33" y="-187.8" font-family="Times,serif" font-size="14.00">samples = 0.8%</text>
<text text-anchor="start" x="567.33" y="-172.8" font-family="Times,serif" font-size="14.00">value = [0.31, 0.69]</text>
<text text-anchor="start" x="582.33" y="-157.8" font-family="Times,serif" font-size="14.00">class = female</text>
</g>
<!-- 5&#45;&gt;7 -->
<g id="edge7" class="edge">
<title>5&#45;&gt;7</title>
<path fill="none" stroke="black" d="M501.46,-200.21C516.75,-197.19 533.25,-193.92 548.98,-190.81"/>
<polygon fill="black" stroke="black" points="550.05,-194.17 559.18,-188.79 548.69,-187.3 550.05,-194.17"/>
</g>
<!-- 9 -->
<g id="node10" class="node">
<title>9</title>
<polygon fill="#edaa79" stroke="black" points="501.33,-139.5 375.33,-139.5 375.33,-71.5 501.33,-71.5 501.33,-139.5"/>
<text text-anchor="start" x="408.83" y="-124.3" font-family="Times,serif" font-size="14.00">truth ≤ 0.0</text>
<text text-anchor="start" x="393.33" y="-109.3" font-family="Times,serif" font-size="14.00">samples = 3.4%</text>
<text text-anchor="start" x="383.33" y="-94.3" font-family="Times,serif" font-size="14.00">value = [0.75, 0.25]</text>
<text text-anchor="start" x="403.33" y="-79.3" font-family="Times,serif" font-size="14.00">class = male</text>
</g>
<!-- 8&#45;&gt;9 -->
<g id="edge9" class="edge">
<title>8&#45;&gt;9</title>
<path fill="none" stroke="black" d="M318.37,-105.5C333.4,-105.5 349.59,-105.5 365.04,-105.5"/>
<polygon fill="black" stroke="black" points="365.07,-109 375.07,-105.5 365.07,-102 365.07,-109"/>
</g>
<!-- 12 -->
<g id="node13" class="node">
<title>12</title>
<polygon fill="#e58139" stroke="black" points="494.83,-53 381.83,-53 381.83,0 494.83,0 494.83,-53"/>
<text text-anchor="start" x="393.33" y="-37.8" font-family="Times,serif" font-size="14.00">samples = 0.5%</text>
<text text-anchor="start" x="389.83" y="-22.8" font-family="Times,serif" font-size="14.00">value = [1.0, 0.0]</text>
<text text-anchor="start" x="403.33" y="-7.8" font-family="Times,serif" font-size="14.00">class = male</text>
</g>
<!-- 8&#45;&gt;12 -->
<g id="edge12" class="edge">
<title>8&#45;&gt;12</title>
<path fill="none" stroke="black" d="M318.37,-78.42C335.73,-70.85 354.64,-62.59 372.17,-54.94"/>
<polygon fill="black" stroke="black" points="373.98,-57.97 381.75,-50.76 371.18,-51.55 373.98,-57.97"/>
</g>
<!-- 10 -->
<g id="node11" class="node">
<title>10</title>
<polygon fill="#eca571" stroke="black" points="685.33,-132 559.33,-132 559.33,-79 685.33,-79 685.33,-132"/>
<text text-anchor="start" x="577.33" y="-116.8" font-family="Times,serif" font-size="14.00">samples = 2.9%</text>
<text text-anchor="start" x="567.33" y="-101.8" font-family="Times,serif" font-size="14.00">value = [0.78, 0.22]</text>
<text text-anchor="start" x="587.33" y="-86.8" font-family="Times,serif" font-size="14.00">class = male</text>
</g>
<!-- 9&#45;&gt;10 -->
<g id="edge10" class="edge">
<title>9&#45;&gt;10</title>
<path fill="none" stroke="black" d="M501.46,-105.5C516.75,-105.5 533.25,-105.5 548.98,-105.5"/>
<polygon fill="black" stroke="black" points="549.18,-109 559.18,-105.5 549.18,-102 549.18,-109"/>
</g>
<!-- 11 -->
<g id="node12" class="node">
<title>11</title>
<polygon fill="#f8e0ce" stroke="black" points="685.33,-61 559.33,-61 559.33,-8 685.33,-8 685.33,-61"/>
<text text-anchor="start" x="577.33" y="-45.8" font-family="Times,serif" font-size="14.00">samples = 0.5%</text>
<text text-anchor="start" x="567.33" y="-30.8" font-family="Times,serif" font-size="14.00">value = [0.57, 0.43]</text>
<text text-anchor="start" x="587.33" y="-15.8" font-family="Times,serif" font-size="14.00">class = male</text>
</g>
<!-- 9&#45;&gt;11 -->
<g id="edge11" class="edge">
<title>9&#45;&gt;11</title>
<path fill="none" stroke="black" d="M501.46,-81.26C516.89,-75.24 533.57,-68.74 549.43,-62.55"/>
<polygon fill="black" stroke="black" points="551.14,-65.64 559.18,-58.75 548.59,-59.12 551.14,-65.64"/>
</g>
</g>
</svg>
